<svg xlink="http://www.w3.org/1999/xlink" viewBox="0 0 5000 5000" xmlns="http://www.w3.org/2000/svg" style="transform: scale(1);"><defs><filter id="goo"><feGaussianBlur in="SourceGraphic" stdDeviation="7.6" result="blur"></feGaussianBlur><feColorMatrix in="blur" type="matrix" values="1 0 0 0 0 0 1 0 0 0 0 0 1 0 0 0 0 0 19 -9" result="good"></feColorMatrix><feComposite in="SourceGraphic" in2="goo" operator="atop"></feComposite></filter><path d="M354,152C396,203 347,262 330,294C328,299 317,299 310,306C291,325 263,317 246,315C225,313 211,298 200,282C189,262 104,222 127,183C139,158 204,194 216,189C236,178 261,166 284,177C294,180 343,138 354,152z" id="P0"></path><path d="M167,402C118,374 69,335 62,286C51,212 73,138 124,97C142,79 181,103 201,99C250,83 306,78 351,111C388,136 405,177 412,219C422,283 408,351 363,386C355,395 348,405 338,409C286,438 227,430 167,402z" id="P1"></path><path d="M76,332Q58,226 197,211Q194,131 243,140Q290,128 289,203Q323,190 305,215Q351,231 320,268Q319,315 270,300Q212,399 128,339Q25,374 76,332z" id="P2"></path><path d="M178,404C119,373 88,314 86,250C84,218 171,219 183,201C195,183 183,108 222,102C280,93 285,195 300,214C300,214 360,170 365,177C388,214 346,256 333,289C320,316 351,434 300,444C250,458 206,421 178,404z" id="P3"></path><path d="M397,319C385,348 382,390 340,414C287,443 225,450 179,429C167,425 153,427 132,412C80,373 95,300 95,250C95,200 123,157 162,129C184,110 210,95 250,95C321,100 413,115 442,201C456,250 413,292 397,319z" id="P4"></path><path d="M240,97Q281,7 303,85Q480,104 440,250Q466,305 344,302Q315,352 253,304Q219,329 206,291Q163,313 182,299Q70,250 136,143Q151,40 240,97z" id="P5"></path><path d="M220,133C266,123 350,69 408,135C445,187 308,250 303,264C301,274 347,321 325,340C302,360 284,427 228,422C184,417 145,394 125,367C81,317 83,250 107,183C118,154 206,203 214,200C220,195 205,135 220,133z" id="P6"></path><path d="M83,304C65,250 90,198 115,164C124,146 122,113 151,95C202,63 262,52 308,70C367,89 403,139 421,194C430,216 411,240 407,270C388,350 339,440 250,444C238,446 226,440 226,439C153,426 106,369 83,304z" id="P7"></path><path d="M199,304Q104,297 122,226Q89,133 193,128Q261,72 294,157Q383,89 392,147Q481,175 398,250Q458,317 366,334Q287,393 230,300Q199,331 199,304z" id="P8"></path><path d="M250,88C313,90 317,178 334,210C340,221 363,228 363,243C365,265 407,301 385,336C364,371 332,399 301,406C250,422 203,395 172,372C126,340 45,303 52,225C60,161 171,176 206,157C218,150 219,88 250,88z" id="P9"></path><path d="M108,328C83,282 55,225 76,181C87,147 102,111 134,91C198,48 270,91 323,118C349,130 371,150 383,177C403,211 455,250 441,299C434,336 402,361 383,375C333,426 263,456 178,431C131,414 120,357 108,328z" id="P10"></path><path d="M174,169Q250,125 285,208Q360,147 368,164Q443,226 356,292Q369,413 269,404Q211,401 222,295Q162,323 160,293Q32,222 94,137Q74,105 174,169z" id="P11"></path><path d="M61,214C69,165 163,178 186,162C208,145 229,83 260,88C302,90 354,86 394,131C433,178 429,239 418,282C416,304 331,288 321,302C304,325 280,343 250,343C220,343 194,327 173,299C160,279 51,263 61,214z" id="P12"></path><path d="M306,421C273,434 238,444 192,430C145,416 123,370 103,331C85,303 84,271 89,230C91,198 109,173 124,158C154,117 194,77 239,77C318,78 370,137 393,193C409,230 437,274 422,306C404,362 361,403 306,421z" id="P13"></path><path d="M387,294Q382,391 292,355Q250,402 212,331Q141,382 133,324Q50,315 108,250Q111,162 217,179Q240,97 282,127Q362,73 367,153Q468,208 387,294z" id="P14"></path></defs><rect id="RECT" width="5000" height="5000" fill="#3B4FA8"></rect><g id="group" fill="#415BCC" filter="url(#goo)"><use x="32" y="35" href="#P9"></use><use x="-163" y="362" href="#P8"></use><use x="-47" y="414" href="#P1"></use><use x="-184" y="694" href="#P5"></use><use x="-2" y="1132" href="#P11"></use><use x="-183" y="1262" href="#P6"></use><use x="115" y="1814" href="#P3"></use><use x="-5" y="2058" href="#P13"></use><use x="-159" y="2260" href="#P8"></use><use x="43" y="2476" href="#P4"></use><use x="-95" y="2845" href="#P9"></use><use x="-128" y="3268" href="#P10"></use><use x="-61" y="3558" href="#P4"></use><use x="-285" y="3829" href="#P11"></use><use x="-212" y="4127" href="#P8"></use><use x="-177" y="4381" href="#P6"></use><use x="-45" y="4798" href="#P0"></use><use x="-123" y="5112" href="#P5"></use><use x="-56" y="5452" href="#P5"></use><use x="169" y="-105" href="#P3"></use><use x="148" y="46" href="#P5"></use><use x="237" y="329" href="#P8"></use><use x="278" y="719" href="#P0"></use><use x="245" y="1271" href="#P3"></use><use x="144" y="1493" href="#P12"></use><use x="230" y="1672" href="#P6"></use><use x="162" y="2032" href="#P5"></use><use x="49" y="2406" href="#P1"></use><use x="205" y="2725" href="#P0"></use><use x="103" y="2885" href="#P11"></use><use x="121" y="3133" href="#P12"></use><use x="208" y="3378" href="#P14"></use><use x="220" y="3743" href="#P7"></use><use x="112" y="4118" href="#P13"></use><use x="81" y="4406" href="#P14"></use><use x="111" y="4757" href="#P5"></use><use x="114" y="4951" href="#P4"></use><use x="224" y="5354" href="#P12"></use><use x="561" y="-15" href="#P8"></use><use x="561" y="110" href="#P10"></use><use x="605" y="383" href="#P12"></use><use x="617" y="933" href="#P11"></use><use x="608" y="1090" href="#P4"></use><use x="465" y="1252" href="#P2"></use><use x="373" y="1556" href="#P1"></use><use x="348" y="2073" href="#P1"></use><use x="588" y="2301" href="#P11"></use><use x="610" y="2685" href="#P3"></use><use x="675" y="2861" href="#P12"></use><use x="420" y="3300" href="#P10"></use><use x="460" y="3665" href="#P2"></use><use x="612" y="3762" href="#P14"></use><use x="542" y="4153" href="#P7"></use><use x="454" y="4396" href="#P6"></use><use x="634" y="4661" href="#P11"></use><use x="493" y="4986" href="#P11"></use><use x="522" y="5415" href="#P9"></use><use x="700" y="-59" href="#P8"></use><use x="816" y="188" href="#P2"></use><use x="811" y="554" href="#P14"></use><use x="658" y="873" href="#P6"></use><use x="902" y="1012" href="#P7"></use><use x="840" y="1531" href="#P11"></use><use x="911" y="1751" href="#P9"></use><use x="866" y="2104" href="#P10"></use><use x="748" y="2359" href="#P6"></use><use x="949" y="2549" href="#P11"></use><use x="780" y="2852" href="#P8"></use><use x="700" y="3195" href="#P8"></use><use x="858" y="3510" href="#P5"></use><use x="743" y="3855" href="#P2"></use><use x="767" y="4185" href="#P1"></use><use x="837" y="4490" href="#P9"></use><use x="861" y="4563" href="#P9"></use><use x="814" y="4947" href="#P4"></use><use x="888" y="5314" href="#P3"></use><use x="1202" y="-295" href="#P3"></use><use x="1051" y="354" href="#P1"></use><use x="1191" y="522" href="#P10"></use><use x="1204" y="722" href="#P11"></use><use x="1278" y="1059" href="#P0"></use><use x="1166" y="1314" href="#P14"></use><use x="1273" y="1670" href="#P12"></use><use x="1129" y="2076" href="#P13"></use><use x="1062" y="2173" href="#P14"></use><use x="1063" y="2596" href="#P6"></use><use x="1115" y="2826" href="#P4"></use><use x="1061" y="3217" href="#P3"></use><use x="1208" y="3419" href="#P1"></use><use x="1296" y="3691" href="#P14"></use><use x="962" y="4053" href="#P11"></use><use x="1034" y="4459" href="#P9"></use><use x="1062" y="4573" href="#P3"></use><use x="1281" y="4997" href="#P2"></use><use x="1055" y="5394" href="#P5"></use><use x="1562" y="-87" href="#P5"></use><use x="1611" y="245" href="#P1"></use><use x="1515" y="471" href="#P13"></use><use x="1412" y="649" href="#P3"></use><use x="1547" y="1235" href="#P14"></use><use x="1304" y="1308" href="#P7"></use><use x="1280" y="1836" href="#P6"></use><use x="1524" y="1942" href="#P11"></use><use x="1437" y="2170" href="#P3"></use><use x="1434" y="2588" href="#P10"></use><use x="1370" y="2901" href="#P7"></use><use x="1317" y="3181" href="#P14"></use><use x="1571" y="3617" href="#P14"></use><use x="1300" y="3880" href="#P9"></use><use x="1363" y="4046" href="#P2"></use><use x="1475" y="4387" href="#P2"></use><use x="1438" y="4685" href="#P3"></use><use x="1374" y="5080" href="#P3"></use><use x="1510" y="5212" href="#P11"></use><use x="1763" y="64" href="#P9"></use><use x="1759" y="175" href="#P9"></use><use x="1801" y="426" href="#P4"></use><use x="1739" y="670" href="#P13"></use><use x="1831" y="1204" href="#P5"></use><use x="1733" y="1349" href="#P2"></use><use x="1798" y="1853" href="#P10"></use><use x="1754" y="1977" href="#P10"></use><use x="1868" y="2455" href="#P7"></use><use x="1877" y="2654" href="#P13"></use><use x="1823" y="2799" href="#P3"></use><use x="1589" y="3321" href="#P2"></use><use x="1800" y="3612" href="#P14"></use><use x="1868" y="3868" href="#P0"></use><use x="1694" y="4195" href="#P5"></use><use x="1668" y="4397" href="#P12"></use><use x="1770" y="4778" href="#P10"></use><use x="1900" y="4889" href="#P5"></use><use x="1687" y="5217" href="#P13"></use><use x="1984" y="-91" href="#P14"></use><use x="1919" y="205" href="#P0"></use><use x="2057" y="336" href="#P12"></use><use x="2172" y="751" href="#P13"></use><use x="2047" y="1053" href="#P13"></use><use x="1917" y="1407" href="#P0"></use><use x="2162" y="1728" href="#P7"></use><use x="2205" y="2038" href="#P2"></use><use x="1959" y="2258" href="#P2"></use><use x="1972" y="2716" href="#P6"></use><use x="1987" y="3006" href="#P12"></use><use x="1926" y="3229" href="#P7"></use><use x="1899" y="3473" href="#P3"></use><use x="2142" y="3759" href="#P0"></use><use x="1972" y="4056" href="#P10"></use><use x="1959" y="4288" href="#P11"></use><use x="2016" y="4824" href="#P9"></use><use x="2108" y="5006" href="#P6"></use><use x="2034" y="5541" href="#P8"></use><use x="2409" y="-128" href="#P9"></use><use x="2224" y="85" href="#P14"></use><use x="2265" y="315" href="#P2"></use><use x="2367" y="677" href="#P4"></use><use x="2220" y="1048" href="#P8"></use><use x="2232" y="1331" href="#P6"></use><use x="2324" y="1722" href="#P14"></use><use x="2349" y="2081" href="#P6"></use><use x="2402" y="2246" href="#P13"></use><use x="2494" y="2507" href="#P13"></use><use x="2319" y="2813" href="#P9"></use><use x="2230" y="3327" href="#P12"></use><use x="2341" y="3430" href="#P14"></use><use x="2230" y="3860" href="#P10"></use><use x="2226" y="4055" href="#P4"></use><use x="2267" y="4443" href="#P9"></use><use x="2246" y="4770" href="#P0"></use><use x="2337" y="4944" href="#P12"></use><use x="2483" y="5325" href="#P5"></use><use x="2651" y="-222" href="#P4"></use><use x="2681" y="46" href="#P11"></use><use x="2534" y="537" href="#P5"></use><use x="2643" y="985" href="#P4"></use><use x="2785" y="1220" href="#P0"></use><use x="2532" y="1433" href="#P7"></use><use x="2611" y="1628" href="#P2"></use><use x="2500" y="2080" href="#P4"></use><use x="2512" y="2164" href="#P4"></use><use x="2756" y="2561" href="#P5"></use><use x="2506" y="2803" href="#P11"></use><use x="2531" y="3292" href="#P1"></use><use x="2795" y="3391" href="#P14"></use><use x="2751" y="3847" href="#P11"></use><use x="2612" y="4174" href="#P1"></use><use x="2670" y="4324" href="#P3"></use><use x="2611" y="4689" href="#P10"></use><use x="2746" y="4933" href="#P1"></use><use x="2620" y="5322" href="#P9"></use><use x="2804" y="-87" href="#P14"></use><use x="2823" y="122" href="#P13"></use><use x="2879" y="456" href="#P9"></use><use x="2887" y="699" href="#P5"></use><use x="2835" y="1178" href="#P10"></use><use x="2825" y="1479" href="#P8"></use><use x="2863" y="1715" href="#P14"></use><use x="2929" y="1892" href="#P6"></use><use x="2902" y="2347" href="#P12"></use><use x="2902" y="2543" href="#P5"></use><use x="2851" y="2824" href="#P8"></use><use x="2996" y="3208" href="#P12"></use><use x="3070" y="3446" href="#P11"></use><use x="3062" y="3765" href="#P4"></use><use x="2811" y="4164" href="#P3"></use><use x="2846" y="4584" href="#P11"></use><use x="3119" y="4626" href="#P11"></use><use x="3005" y="4897" href="#P7"></use><use x="2988" y="5345" href="#P5"></use><use x="3146" y="-39" href="#P1"></use><use x="3308" y="173" href="#P7"></use><use x="3321" y="568" href="#P2"></use><use x="3276" y="949" href="#P2"></use><use x="3260" y="1060" href="#P9"></use><use x="3320" y="1370" href="#P8"></use><use x="3372" y="1782" href="#P5"></use><use x="3139" y="2127" href="#P10"></use><use x="3192" y="2435" href="#P12"></use><use x="3130" y="2742" href="#P14"></use><use x="3167" y="2800" href="#P8"></use><use x="3424" y="3318" href="#P10"></use><use x="3304" y="3651" href="#P8"></use><use x="3146" y="3792" href="#P1"></use><use x="3407" y="4175" href="#P13"></use><use x="3293" y="4589" href="#P1"></use><use x="3241" y="4713" href="#P1"></use><use x="3326" y="4930" href="#P14"></use><use x="3158" y="5168" href="#P2"></use><use x="3505" y="94" href="#P7"></use><use x="3556" y="213" href="#P5"></use><use x="3672" y="344" href="#P6"></use><use x="3475" y="686" href="#P2"></use><use x="3674" y="1225" href="#P1"></use><use x="3606" y="1347" href="#P14"></use><use x="3719" y="1829" href="#P9"></use><use x="3625" y="2062" href="#P13"></use><use x="3651" y="2391" href="#P0"></use><use x="3759" y="2762" href="#P9"></use><use x="3759" y="2856" href="#P2"></use><use x="3722" y="3129" href="#P3"></use><use x="3558" y="3594" href="#P0"></use><use x="3667" y="3936" href="#P10"></use><use x="3464" y="3943" href="#P9"></use><use x="3593" y="4338" href="#P7"></use><use x="3672" y="4653" href="#P1"></use><use x="3425" y="4853" href="#P13"></use><use x="3470" y="5295" href="#P6"></use><use x="3723" y="70" href="#P8"></use><use x="3849" y="295" href="#P6"></use><use x="4041" y="611" href="#P10"></use><use x="4045" y="926" href="#P2"></use><use x="4025" y="1067" href="#P9"></use><use x="3716" y="1298" href="#P0"></use><use x="3815" y="1879" href="#P6"></use><use x="3858" y="2098" href="#P10"></use><use x="3819" y="2174" href="#P10"></use><use x="3794" y="2751" href="#P10"></use><use x="3831" y="3040" href="#P3"></use><use x="3822" y="3068" href="#P7"></use><use x="3990" y="3375" href="#P11"></use><use x="3783" y="3676" href="#P1"></use><use x="3957" y="4273" href="#P1"></use><use x="3840" y="4417" href="#P4"></use><use x="3946" y="4767" href="#P7"></use><use x="3829" y="4919" href="#P0"></use><use x="3780" y="5486" href="#P8"></use><use x="4348" y="-83" href="#P8"></use><use x="4054" y="331" href="#P14"></use><use x="4063" y="445" href="#P5"></use><use x="4156" y="896" href="#P5"></use><use x="4141" y="973" href="#P4"></use><use x="4348" y="1308" href="#P7"></use><use x="4028" y="1591" href="#P8"></use><use x="4181" y="2073" href="#P14"></use><use x="4175" y="2330" href="#P13"></use><use x="4197" y="2611" href="#P9"></use><use x="4271" y="3048" href="#P11"></use><use x="4120" y="3244" href="#P6"></use><use x="4023" y="3380" href="#P12"></use><use x="4107" y="3854" href="#P0"></use><use x="4215" y="4032" href="#P6"></use><use x="4235" y="4460" href="#P9"></use><use x="4149" y="4760" href="#P13"></use><use x="4227" y="5052" href="#P11"></use><use x="4292" y="5216" href="#P3"></use><use x="4567" y="-39" href="#P14"></use><use x="4467" y="70" href="#P7"></use><use x="4590" y="583" href="#P8"></use><use x="4553" y="833" href="#P9"></use><use x="4517" y="1174" href="#P9"></use><use x="4521" y="1463" href="#P5"></use><use x="4560" y="1712" href="#P5"></use><use x="4614" y="1984" href="#P2"></use><use x="4391" y="2170" href="#P0"></use><use x="4622" y="2548" href="#P9"></use><use x="4619" y="2836" href="#P14"></use><use x="4322" y="3102" href="#P2"></use><use x="4459" y="3671" href="#P14"></use><use x="4429" y="3708" href="#P2"></use><use x="4516" y="4070" href="#P6"></use><use x="4412" y="4461" href="#P10"></use><use x="4541" y="4803" href="#P9"></use><use x="4419" y="5070" href="#P7"></use><use x="4404" y="5393" href="#P7"></use><use x="4906" y="43" href="#P12"></use><use x="4946" y="97" href="#P3"></use><use x="4967" y="410" href="#P5"></use><use x="4679" y="721" href="#P5"></use><use x="4632" y="1113" href="#P6"></use><use x="4678" y="1400" href="#P12"></use><use x="4766" y="1666" href="#P11"></use><use x="4853" y="1899" href="#P9"></use><use x="4892" y="2236" href="#P1"></use><use x="4809" y="2721" href="#P13"></use><use x="4766" y="2952" href="#P12"></use><use x="4713" y="3270" href="#P11"></use><use x="4755" y="3415" href="#P11"></use><use x="4603" y="3936" href="#P5"></use><use x="4849" y="4152" href="#P2"></use><use x="4632" y="4392" href="#P5"></use><use x="4816" y="4705" href="#P10"></use><use x="4870" y="5091" href="#P2"></use><use x="4650" y="5176" href="#P12"></use><use x="4958" y="72" href="#P12"></use><use x="5171" y="187" href="#P3"></use><use x="5185" y="415" href="#P14"></use><use x="5170" y="783" href="#P0"></use><use x="4980" y="1103" href="#P2"></use><use x="4995" y="1286" href="#P12"></use><use x="5108" y="1712" href="#P11"></use><use x="5142" y="2081" href="#P0"></use><use x="5080" y="2376" href="#P3"></use><use x="5112" y="2483" href="#P13"></use><use x="5117" y="2770" href="#P3"></use><use x="5074" y="3161" href="#P3"></use><use x="5204" y="3378" href="#P3"></use><use x="5221" y="3942" href="#P10"></use><use x="5201" y="4051" href="#P4"></use><use x="5194" y="4378" href="#P10"></use><use x="5165" y="4647" href="#P9"></use><use x="5124" y="4934" href="#P9"></use><use x="5025" y="5243" href="#P7"></use></g></svg>