<?xml version="1.0" standalone="no"?><svg xmlns="http://www.w3.org/2000/svg" viewBox="0 0 1440 320"><path fill="#0099ff" fill-opacity="1" d="M0,288L8,261.3C16,235,32,181,48,149.3C64,117,80,107,96,122.7C112,139,128,181,144,213.3C160,245,176,267,192,266.7C208,267,224,245,240,240C256,235,272,245,288,208C304,171,320,85,336,69.3C352,53,368,107,384,154.7C400,203,416,245,432,256C448,267,464,245,480,224C496,203,512,181,528,197.3C544,213,560,267,576,272C592,277,608,235,624,186.7C640,139,656,85,672,85.3C688,85,704,139,720,133.3C736,128,752,64,768,85.3C784,107,800,213,816,240C832,267,848,213,864,165.3C880,117,896,75,912,53.3C928,32,944,32,960,58.7C976,85,992,139,1008,181.3C1024,224,1040,256,1056,234.7C1072,213,1088,139,1104,96C1120,53,1136,43,1152,64C1168,85,1184,139,1200,138.7C1216,139,1232,85,1248,74.7C1264,64,1280,96,1296,138.7C1312,181,1328,235,1344,229.3C1360,224,1376,160,1392,154.7C1408,149,1424,203,1432,229.3L1440,256L1440,0L1432,0C1424,0,1408,0,1392,0C1376,0,1360,0,1344,0C1328,0,1312,0,1296,0C1280,0,1264,0,1248,0C1232,0,1216,0,1200,0C1184,0,1168,0,1152,0C1136,0,1120,0,1104,0C1088,0,1072,0,1056,0C1040,0,1024,0,1008,0C992,0,976,0,960,0C944,0,928,0,912,0C896,0,880,0,864,0C848,0,832,0,816,0C800,0,784,0,768,0C752,0,736,0,720,0C704,0,688,0,672,0C656,0,640,0,624,0C608,0,592,0,576,0C560,0,544,0,528,0C512,0,496,0,480,0C464,0,448,0,432,0C416,0,400,0,384,0C368,0,352,0,336,0C320,0,304,0,288,0C272,0,256,0,240,0C224,0,208,0,192,0C176,0,160,0,144,0C128,0,112,0,96,0C80,0,64,0,48,0C32,0,16,0,8,0L0,0Z"></path></svg>