<?xml version="1.0" standalone="no"?><svg xmlns="http://www.w3.org/2000/svg" viewBox="0 0 1440 320"><path fill="#425cd0" fill-opacity="1" d="M0,128L0,224L36.9,224L36.9,64L73.8,64L73.8,288L110.8,288L110.8,128L147.7,128L147.7,64L184.6,64L184.6,32L221.5,32L221.5,224L258.5,224L258.5,224L295.4,224L295.4,32L332.3,32L332.3,288L369.2,288L369.2,32L406.2,32L406.2,128L443.1,128L443.1,96L480,96L480,32L516.9,32L516.9,32L553.8,32L553.8,64L590.8,64L590.8,256L627.7,256L627.7,96L664.6,96L664.6,256L701.5,256L701.5,160L738.5,160L738.5,192L775.4,192L775.4,288L812.3,288L812.3,128L849.2,128L849.2,288L886.2,288L886.2,256L923.1,256L923.1,128L960,128L960,192L996.9,192L996.9,256L1033.8,256L1033.8,160L1070.8,160L1070.8,128L1107.7,128L1107.7,0L1144.6,0L1144.6,288L1181.5,288L1181.5,192L1218.5,192L1218.5,128L1255.4,128L1255.4,64L1292.3,64L1292.3,32L1329.2,32L1329.2,160L1366.2,160L1366.2,128L1403.1,128L1403.1,96L1440,96L1440,320L1403.1,320L1403.1,320L1366.2,320L1366.2,320L1329.2,320L1329.2,320L1292.3,320L1292.3,320L1255.4,320L1255.4,320L1218.5,320L1218.5,320L1181.5,320L1181.5,320L1144.6,320L1144.6,320L1107.7,320L1107.7,320L1070.8,320L1070.8,320L1033.8,320L1033.8,320L996.9,320L996.9,320L960,320L960,320L923.1,320L923.1,320L886.2,320L886.2,320L849.2,320L849.2,320L812.3,320L812.3,320L775.4,320L775.4,320L738.5,320L738.5,320L701.5,320L701.5,320L664.6,320L664.6,320L627.7,320L627.7,320L590.8,320L590.8,320L553.8,320L553.8,320L516.9,320L516.9,320L480,320L480,320L443.1,320L443.1,320L406.2,320L406.2,320L369.2,320L369.2,320L332.3,320L332.3,320L295.4,320L295.4,320L258.5,320L258.5,320L221.5,320L221.5,320L184.6,320L184.6,320L147.7,320L147.7,320L110.8,320L110.8,320L73.8,320L73.8,320L36.9,320L36.9,320L0,320L0,320Z"></path></svg>